<?xml version="1.0" encoding="UTF-8"?>
<!DOCTYPE svg PUBLIC "-//W3C//DTD SVG 1.1//EN" "http://www.w3.org/Graphics/SVG/1.1/DTD/svg11.dtd">
<svg xmlns="http://www.w3.org/2000/svg" version="1.1" width="1000px" height="1414px" style="shape-rendering:geometricPrecision; text-rendering:geometricPrecision; image-rendering:optimizeQuality; fill-rule:evenodd; clip-rule:evenodd" xmlns:xlink="http://www.w3.org/1999/xlink">
<g><path style="opacity:1" fill="#fefefe" d="M -0.5,-0.5 C 332.833,-0.5 666.167,-0.5 999.5,-0.5C 999.5,470.833 999.5,942.167 999.5,1413.5C 666.167,1413.5 332.833,1413.5 -0.5,1413.5C -0.5,942.167 -0.5,470.833 -0.5,-0.5 Z"/></g>
<g><path style="opacity:1" fill="#029ee3" d="M 107.5,26.5 C 366.834,26.3333 626.167,26.5 885.5,27C 926.999,33.166 952.499,56.666 962,97.5C 962.667,500.5 962.667,903.5 962,1306.5C 952.93,1347.9 927.43,1371.74 885.5,1378C 625.833,1378.67 366.167,1378.67 106.5,1378C 64.4692,1369.31 40.3025,1343.81 34,1301.5C 33.3333,900.5 33.3333,499.5 34,98.5C 42.8681,58.4646 67.3681,34.4646 107.5,26.5 Z"/></g>
<g><path style="opacity:1" fill="#fefefe" d="M 456.5,135.5 C 480.185,135.21 503.852,135.71 527.5,137C 544.998,138.39 561.332,143.39 576.5,152C 591.12,164.059 599.953,179.559 603,198.5C 603.469,204.19 604.136,209.857 605,215.5C 605.922,257.184 605.589,298.851 604,340.5C 602.14,361.377 593.973,379.211 579.5,394C 568.483,402.233 556.15,407.566 542.5,410C 534.582,411.653 526.582,412.653 518.5,413C 495.833,413.667 473.167,413.667 450.5,413C 431.59,411.918 414.256,406.252 398.5,396C 387.62,386.081 380.454,373.915 377,359.5C 374.905,349.262 373.571,338.929 373,328.5C 372.333,289.833 372.333,251.167 373,212.5C 373.895,195.331 378.561,179.331 387,164.5C 395.728,153.45 406.895,145.95 420.5,142C 432.529,139.283 444.529,137.117 456.5,135.5 Z"/></g>
<g><path style="opacity:1" fill="#fefefe" d="M 276.5,182.5 C 275.501,258.665 275.167,334.998 275.5,411.5C 258.167,411.5 240.833,411.5 223.5,411.5C 223.5,335.167 223.5,258.833 223.5,182.5C 196.5,182.5 169.5,182.5 142.5,182.5C 142.5,167.5 142.5,152.5 142.5,137.5C 213.833,137.5 285.167,137.5 356.5,137.5C 356.5,152.5 356.5,167.5 356.5,182.5C 329.833,182.5 303.167,182.5 276.5,182.5 Z"/></g>
<g><path style="opacity:1" fill="#fefefe" d="M 766.5,322.5 C 739.5,322.5 712.5,322.5 685.5,322.5C 685.5,352.167 685.5,381.833 685.5,411.5C 668.167,411.5 650.833,411.5 633.5,411.5C 633.5,320.167 633.5,228.833 633.5,137.5C 683.516,137.074 733.516,137.574 783.5,139C 827.952,141.452 850.785,164.952 852,209.5C 853.078,228.906 852.411,248.239 850,267.5C 844.905,300.923 825.405,318.756 791.5,321C 783.187,321.883 774.853,322.383 766.5,322.5 Z"/></g>
<g><path style="opacity:1" fill="#059ee3" d="M 464.5,180.5 C 480.503,180.333 496.503,180.5 512.5,181C 535.045,180.663 548.212,191.496 552,213.5C 552.667,252.167 552.667,290.833 552,329.5C 550.785,350.032 540.285,362.532 520.5,367C 499.547,369.891 478.547,370.224 457.5,368C 438.088,365.254 427.588,354.087 426,334.5C 424.433,298.517 424.099,262.517 425,226.5C 424.962,216.393 426.962,206.727 431,197.5C 434.715,191.556 439.882,187.389 446.5,185C 452.553,183.153 458.553,181.653 464.5,180.5 Z"/></g>
<g><path style="opacity:1" fill="#98d8f4" d="M 276.5,182.5 C 276.5,259.167 276.5,335.833 276.5,412.5C 258.659,412.83 240.992,412.497 223.5,411.5C 240.833,411.5 258.167,411.5 275.5,411.5C 275.167,334.998 275.501,258.665 276.5,182.5 Z"/></g>
<g><path style="opacity:1" fill="#029ee3" d="M 686.5,182.5 C 714.169,182.333 741.835,182.5 769.5,183C 786.164,183.667 795.997,192.167 799,208.5C 799.667,222.833 799.667,237.167 799,251.5C 797.922,264.571 791.089,272.738 778.5,276C 773.178,276.684 767.844,277.184 762.5,277.5C 737.167,277.5 711.833,277.5 686.5,277.5C 686.5,245.833 686.5,214.167 686.5,182.5 Z"/></g>
<g><path style="opacity:1" fill="#82cff1" d="M 686.5,182.5 C 686.5,214.167 686.5,245.833 686.5,277.5C 711.833,277.5 737.167,277.5 762.5,277.5C 737.005,278.498 711.339,278.831 685.5,278.5C 685.168,246.329 685.502,214.329 686.5,182.5 Z"/></g>
<g><path style="opacity:1" fill="#85d0f1" d="M 766.5,322.5 C 740.005,323.498 713.339,323.831 686.5,323.5C 686.831,353.005 686.498,382.338 685.5,411.5C 685.5,381.833 685.5,352.167 685.5,322.5C 712.5,322.5 739.5,322.5 766.5,322.5 Z"/></g>
<g><path style="opacity:1" fill="#fcfdfe" d="M 166.5,476.5 C 177.838,476.333 189.172,476.5 200.5,477C 219.746,479.292 228.079,490.126 225.5,509.5C 218.5,509.5 211.5,509.5 204.5,509.5C 204.665,506.15 204.498,502.817 204,499.5C 203.167,497.333 201.667,495.833 199.5,495C 188.05,492.733 176.717,493.067 165.5,496C 164.333,497.167 163.167,498.333 162,499.5C 161.333,504.833 161.333,510.167 162,515.5C 163.26,518.428 165.427,520.261 168.5,521C 183.215,522.372 197.881,524.039 212.5,526C 220,528.167 224.833,533 227,540.5C 227.667,548.5 227.667,556.5 227,564.5C 225.864,574.98 220.364,581.814 210.5,585C 192.13,588.214 173.797,588.214 155.5,585C 149.392,582.559 144.892,578.392 142,572.5C 140.117,565.625 139.284,558.625 139.5,551.5C 146.5,551.5 153.5,551.5 160.5,551.5C 160.191,556.267 160.691,560.934 162,565.5C 164.194,568.181 167.027,569.681 170.5,570C 180.219,570.859 189.885,570.526 199.5,569C 203,568.167 205.167,566 206,562.5C 206.667,557.167 206.667,551.833 206,546.5C 205.215,544.714 204.049,543.214 202.5,542C 188.535,540.579 174.535,539.246 160.5,538C 145.648,533.665 138.981,523.665 140.5,508C 139.558,489.451 148.224,478.951 166.5,476.5 Z"/></g>
<g><path style="opacity:1" fill="#fcfdfe" d="M 242.5,477.5 C 249.5,477.5 256.5,477.5 263.5,477.5C 263.333,505.169 263.5,532.835 264,560.5C 264.733,564.234 266.9,566.734 270.5,568C 280.439,569.562 290.439,569.895 300.5,569C 306.661,568.52 310.495,565.353 312,559.5C 312.5,532.169 312.667,504.835 312.5,477.5C 319.5,477.5 326.5,477.5 333.5,477.5C 333.667,505.169 333.5,532.835 333,560.5C 332.307,573.427 325.807,581.594 313.5,585C 294.717,588.578 276.05,588.245 257.5,584C 249.23,580.062 244.396,573.562 243,564.5C 242.5,535.502 242.333,506.502 242.5,477.5 Z"/></g>
<g><path style="opacity:1" fill="#fcfefe" d="M 350.5,477.5 C 370.169,477.333 389.836,477.5 409.5,478C 424.12,477.709 433.286,484.543 437,498.5C 438.123,511.286 437.456,523.953 435,536.5C 432.797,542.774 428.464,546.774 422,548.5C 417.929,549.796 413.762,550.629 409.5,551C 396.838,551.5 384.171,551.667 371.5,551.5C 371.5,563.167 371.5,574.833 371.5,586.5C 364.5,586.5 357.5,586.5 350.5,586.5C 350.5,550.167 350.5,513.833 350.5,477.5 Z"/></g>
<g><path style="opacity:1" fill="#fcfefe" d="M 450.5,477.5 C 470.169,477.333 489.836,477.5 509.5,478C 524.12,477.709 533.286,484.543 537,498.5C 537.667,508.5 537.667,518.5 537,528.5C 534.425,543.076 525.592,550.576 510.5,551C 497.504,551.5 484.504,551.667 471.5,551.5C 471.5,563.167 471.5,574.833 471.5,586.5C 464.5,586.5 457.5,586.5 450.5,586.5C 450.5,550.167 450.5,513.833 450.5,477.5 Z"/></g>
<g><path style="opacity:1" fill="#fcfefe" d="M 573.5,568.5 C 589.992,569.497 606.658,569.83 623.5,569.5C 623.5,575.167 623.5,580.833 623.5,586.5C 599.833,586.5 576.167,586.5 552.5,586.5C 552.5,550.167 552.5,513.833 552.5,477.5C 559.5,477.5 566.5,477.5 573.5,477.5C 573.5,507.833 573.5,538.167 573.5,568.5 Z"/></g>
<g><path style="opacity:1" fill="#fefffe" d="M 634.5,477.5 C 641.5,477.5 648.5,477.5 655.5,477.5C 655.5,513.833 655.5,550.167 655.5,586.5C 648.5,586.5 641.5,586.5 634.5,586.5C 634.5,550.167 634.5,513.833 634.5,477.5 Z"/></g>
<g><path style="opacity:1" fill="#fdfefe" d="M 673.5,477.5 C 698.5,477.5 723.5,477.5 748.5,477.5C 748.5,483.5 748.5,489.5 748.5,495.5C 730.5,495.5 712.5,495.5 694.5,495.5C 694.5,504.5 694.5,513.5 694.5,522.5C 711.5,522.5 728.5,522.5 745.5,522.5C 745.5,528.167 745.5,533.833 745.5,539.5C 728.5,539.5 711.5,539.5 694.5,539.5C 694.5,549.167 694.5,558.833 694.5,568.5C 712.5,568.5 730.5,568.5 748.5,568.5C 748.5,574.5 748.5,580.5 748.5,586.5C 723.5,586.5 698.5,586.5 673.5,586.5C 673.5,550.167 673.5,513.833 673.5,477.5 Z"/></g>
<g><path style="opacity:1" fill="#fcfefe" d="M 764.5,477.5 C 785.836,477.333 807.169,477.5 828.5,478C 840.787,478.63 848.62,484.797 852,496.5C 852.903,507.226 852.569,517.893 851,528.5C 847.75,536.058 841.917,540.224 833.5,541C 841.893,541.745 847.726,545.911 851,553.5C 852.406,564.436 852.906,575.436 852.5,586.5C 845.5,586.5 838.5,586.5 831.5,586.5C 831.666,578.16 831.5,569.827 831,561.5C 830.169,556.319 827.336,552.819 822.5,551C 810.171,550.5 797.838,550.333 785.5,550.5C 785.5,562.5 785.5,574.5 785.5,586.5C 778.5,586.5 771.5,586.5 764.5,586.5C 764.5,550.167 764.5,513.833 764.5,477.5 Z"/></g>
<g><path style="opacity:1" fill="#099ee3" d="M 372.5,495.5 C 383.838,495.333 395.172,495.5 406.5,496C 409.973,496.319 412.806,497.819 415,500.5C 417.908,509.039 418.241,517.706 416,526.5C 413.882,530.825 410.382,532.825 405.5,532.5C 394.5,532.5 383.5,532.5 372.5,532.5C 372.5,520.167 372.5,507.833 372.5,495.5 Z"/></g>
<g><path style="opacity:1" fill="#039ee3" d="M 472.5,495.5 C 484.171,495.333 495.838,495.5 507.5,496C 510.548,496.606 513.048,498.106 515,500.5C 516.607,509.064 516.94,517.73 516,526.5C 514.188,530.608 511.021,532.608 506.5,532.5C 495.167,532.5 483.833,532.5 472.5,532.5C 472.5,520.167 472.5,507.833 472.5,495.5 Z"/></g>
<g><path style="opacity:1" fill="#079ee3" d="M 785.5,495.5 C 799.226,495.073 812.893,495.573 826.5,497C 831.134,501.057 833.134,506.224 832.5,512.5C 832.624,517.339 831.79,522.005 830,526.5C 829.167,528.667 827.667,530.167 825.5,531C 812.227,532.425 798.894,532.925 785.5,532.5C 785.5,520.167 785.5,507.833 785.5,495.5 Z"/></g>
<g><path style="opacity:1" fill="#3cb3e9" d="M 372.5,495.5 C 372.5,507.833 372.5,520.167 372.5,532.5C 383.5,532.5 394.5,532.5 405.5,532.5C 394.346,533.495 383.012,533.828 371.5,533.5C 371.171,520.656 371.505,507.989 372.5,495.5 Z"/></g>
<g><path style="opacity:1" fill="#3fb4e9" d="M 472.5,495.5 C 472.5,507.833 472.5,520.167 472.5,532.5C 483.833,532.5 495.167,532.5 506.5,532.5C 495.012,533.495 483.345,533.828 471.5,533.5C 471.171,520.656 471.505,507.989 472.5,495.5 Z"/></g>
<g><path style="opacity:1" fill="#c9eaf9" d="M 573.5,568.5 C 590.5,568.5 607.5,568.5 624.5,568.5C 624.823,574.69 624.49,580.69 623.5,586.5C 623.5,580.833 623.5,575.167 623.5,569.5C 606.658,569.83 589.992,569.497 573.5,568.5 Z"/></g>
<g><path style="opacity:1" fill="#fefefe" d="M 221.5,755.5 C 205.008,754.503 188.342,754.17 171.5,754.5C 171.5,772.167 171.5,789.833 171.5,807.5C 161.5,807.5 151.5,807.5 141.5,807.5C 141.5,754.5 141.5,701.5 141.5,648.5C 172.858,648.08 204.191,648.58 235.5,650C 255.649,651.153 267.149,661.653 270,681.5C 270.853,694.538 270.52,707.538 269,720.5C 264.672,733.092 255.839,740.092 242.5,741.5C 257.361,742.332 266.194,749.998 269,764.5C 269.5,778.829 269.667,793.163 269.5,807.5C 259.5,807.5 249.5,807.5 239.5,807.5C 239.667,795.829 239.5,784.162 239,772.5C 237.235,762.568 231.402,756.901 221.5,755.5 Z"/></g>
<g><path style="opacity:1" fill="#e6f5fc" d="M 402.5,649.5 C 366.5,649.5 330.5,649.5 294.5,649.5C 294.5,702.167 294.5,754.833 294.5,807.5C 293.501,754.669 293.168,701.669 293.5,648.5C 330.004,648.168 366.337,648.502 402.5,649.5 Z"/></g>
<g><path style="opacity:1" fill="#fefefe" d="M 402.5,649.5 C 402.5,657.833 402.5,666.167 402.5,674.5C 376.5,674.5 350.5,674.5 324.5,674.5C 324.5,687.833 324.5,701.167 324.5,714.5C 349.167,714.5 373.833,714.5 398.5,714.5C 398.5,722.833 398.5,731.167 398.5,739.5C 373.833,739.5 349.167,739.5 324.5,739.5C 324.5,753.5 324.5,767.5 324.5,781.5C 350.833,781.5 377.167,781.5 403.5,781.5C 403.5,790.167 403.5,798.833 403.5,807.5C 367.167,807.5 330.833,807.5 294.5,807.5C 294.5,754.833 294.5,702.167 294.5,649.5C 330.5,649.5 366.5,649.5 402.5,649.5 Z"/></g>
<g><path style="opacity:1" fill="#fefefe" d="M 537.5,674.5 C 521.833,674.5 506.167,674.5 490.5,674.5C 490.5,718.833 490.5,763.167 490.5,807.5C 480.5,807.5 470.5,807.5 460.5,807.5C 460.5,763.167 460.5,718.833 460.5,674.5C 444.833,674.5 429.167,674.5 413.5,674.5C 413.5,665.833 413.5,657.167 413.5,648.5C 454.833,648.5 496.167,648.5 537.5,648.5C 537.5,657.167 537.5,665.833 537.5,674.5 Z"/></g>
<g><path style="opacity:1" fill="#fdfefe" d="M 577.5,648.5 C 592.909,647.859 608.076,648.526 623,650.5C 640.839,702.683 658.672,754.85 676.5,807C 666.167,807.667 655.833,807.667 645.5,807C 641.864,797.26 638.531,787.426 635.5,777.5C 612.167,777.5 588.833,777.5 565.5,777.5C 562.5,787.5 559.5,797.5 556.5,807.5C 545.813,807.832 535.146,807.499 524.5,806.5C 542.176,753.805 559.843,701.138 577.5,648.5 Z"/></g>
<g><path style="opacity:1" fill="#d4eefa" d="M 719.5,807.5 C 719.5,754.833 719.5,702.167 719.5,649.5C 709.833,649.5 700.167,649.5 690.5,649.5C 690.5,702.167 690.5,754.833 690.5,807.5C 689.501,754.669 689.168,701.669 689.5,648.5C 699.833,648.5 710.167,648.5 720.5,648.5C 720.832,701.669 720.499,754.669 719.5,807.5 Z"/></g>
<g><path style="opacity:1" fill="#fefffe" d="M 719.5,807.5 C 709.833,807.5 700.167,807.5 690.5,807.5C 690.5,754.833 690.5,702.167 690.5,649.5C 700.167,649.5 709.833,649.5 719.5,649.5C 719.5,702.167 719.5,754.833 719.5,807.5 Z"/></g>
<g><path style="opacity:1" fill="#fefefe" d="M 748.5,648.5 C 758.5,648.5 768.5,648.5 778.5,648.5C 778.5,692.833 778.5,737.167 778.5,781.5C 803.5,781.5 828.5,781.5 853.5,781.5C 853.5,790.167 853.5,798.833 853.5,807.5C 818.5,807.5 783.5,807.5 748.5,807.5C 748.5,754.5 748.5,701.5 748.5,648.5 Z"/></g>
<g><path style="opacity:1" fill="#0e9fe3" d="M 599.5,672.5 C 600.497,672.47 601.164,672.97 601.5,674C 610.679,700.703 619.346,727.537 627.5,754.5C 609.5,754.5 591.5,754.5 573.5,754.5C 581.965,727.105 590.632,699.772 599.5,672.5 Z"/></g>
<g><path style="opacity:1" fill="#72c9ef" d="M 221.5,675.5 C 205.167,675.5 188.833,675.5 172.5,675.5C 172.5,693.167 172.5,710.833 172.5,728.5C 188.5,728.5 204.5,728.5 220.5,728.5C 204.342,729.496 188.009,729.83 171.5,729.5C 171.5,711.167 171.5,692.833 171.5,674.5C 188.342,674.17 205.008,674.503 221.5,675.5 Z"/></g>
<g><path style="opacity:1" fill="#039ee3" d="M 221.5,675.5 C 231.845,674.681 238.012,679.348 240,689.5C 240.765,698.541 240.431,707.541 239,716.5C 235.747,724.882 229.58,728.882 220.5,728.5C 204.5,728.5 188.5,728.5 172.5,728.5C 172.5,710.833 172.5,693.167 172.5,675.5C 188.833,675.5 205.167,675.5 221.5,675.5 Z"/></g>
<g><path style="opacity:1" fill="#43b7ea" d="M 413.5,674.5 C 429.167,674.5 444.833,674.5 460.5,674.5C 460.5,718.833 460.5,763.167 460.5,807.5C 459.501,763.67 459.168,719.67 459.5,675.5C 443.991,675.83 428.658,675.496 413.5,674.5 Z"/></g>
<g><path style="opacity:1" fill="#6ac6ee" d="M 537.5,674.5 C 522.342,675.496 507.009,675.83 491.5,675.5C 491.832,719.67 491.499,763.67 490.5,807.5C 490.5,763.167 490.5,718.833 490.5,674.5C 506.167,674.5 521.833,674.5 537.5,674.5 Z"/></g>
<g><path style="opacity:1" fill="#87d1f1" d="M 221.5,755.5 C 205.167,755.5 188.833,755.5 172.5,755.5C 172.83,773.008 172.497,790.341 171.5,807.5C 171.5,789.833 171.5,772.167 171.5,754.5C 188.342,754.17 205.008,754.503 221.5,755.5 Z"/></g>
<g><path style="opacity:1" fill="#fdfefe" d="M 178.5,1029.5 C 177.515,1033.63 177.182,1037.97 177.5,1042.5C 216.5,1042.5 255.5,1042.5 294.5,1042.5C 294.5,1052.83 294.5,1063.17 294.5,1073.5C 242.833,1073.5 191.167,1073.5 139.5,1073.5C 139.114,1052.8 139.614,1032.14 141,1011.5C 143.499,994.991 152.665,984.158 168.5,979C 174.463,977.207 180.463,975.541 186.5,974C 203.233,971.387 219.9,968.387 236.5,965C 243.574,963.387 249.407,959.887 254,954.5C 256.905,940.905 257.239,927.238 255,913.5C 252.221,905.849 246.721,901.683 238.5,901C 225.865,899.541 213.198,899.208 200.5,900C 189.377,899.955 182.21,905.122 179,915.5C 177.703,924.114 177.203,932.781 177.5,941.5C 165.167,941.5 152.833,941.5 140.5,941.5C 140.334,931.828 140.5,922.161 141,912.5C 142.606,892.577 152.773,879.411 171.5,873C 198.25,866.729 225.25,865.729 252.5,870C 279.498,874.797 293.332,890.964 294,918.5C 295.839,935.548 294.173,952.215 289,968.5C 282.756,980.734 272.923,988.568 259.5,992C 237.236,997.053 214.902,1001.72 192.5,1006C 181.582,1009.99 176.916,1017.82 178.5,1029.5 Z"/></g>
<g><path style="opacity:1" fill="#fefefe" d="M 384.5,867.5 C 399.504,867.333 414.504,867.5 429.5,868C 469.977,869.81 489.81,890.977 489,931.5C 489.667,957.5 489.667,983.5 489,1009.5C 490.215,1052.95 469.049,1074.79 425.5,1075C 408.14,1075.84 390.806,1075.51 373.5,1074C 348.232,1071.06 332.732,1057.23 327,1032.5C 326.021,1023.86 325.354,1015.19 325,1006.5C 324.333,978.5 324.333,950.5 325,922.5C 325.833,896.324 338.666,879.158 363.5,871C 370.642,869.862 377.642,868.695 384.5,867.5 Z"/></g>
<g><path style="opacity:1" fill="#fdfefe" d="M 554.5,1029.5 C 553.515,1033.63 553.182,1037.97 553.5,1042.5C 592.5,1042.5 631.5,1042.5 670.5,1042.5C 670.5,1052.83 670.5,1063.17 670.5,1073.5C 618.833,1073.5 567.167,1073.5 515.5,1073.5C 515.114,1052.8 515.614,1032.14 517,1011.5C 519.499,994.991 528.665,984.158 544.5,979C 550.463,977.207 556.463,975.541 562.5,974C 579.233,971.387 595.9,968.387 612.5,965C 619.574,963.387 625.407,959.887 630,954.5C 632.905,940.905 633.239,927.238 631,913.5C 628.221,905.849 622.721,901.683 614.5,901C 601.865,899.541 589.198,899.208 576.5,900C 565.377,899.955 558.21,905.122 555,915.5C 553.703,924.114 553.203,932.781 553.5,941.5C 541.167,941.5 528.833,941.5 516.5,941.5C 516.334,931.828 516.5,922.161 517,912.5C 518.606,892.577 528.773,879.411 547.5,873C 574.25,866.729 601.25,865.729 628.5,870C 655.498,874.797 669.332,890.964 670,918.5C 671.839,935.548 670.173,952.215 665,968.5C 658.756,980.734 648.923,988.568 635.5,992C 613.236,997.053 590.902,1001.72 568.5,1006C 557.582,1009.99 552.916,1017.82 554.5,1029.5 Z"/></g>
<g><path style="opacity:1" fill="#fdfefe" d="M 782.5,869.5 C 802.5,869.5 822.5,869.5 842.5,869.5C 842.5,912.833 842.5,956.167 842.5,999.5C 850.5,999.5 858.5,999.5 866.5,999.5C 866.5,1009.5 866.5,1019.5 866.5,1029.5C 858.5,1029.5 850.5,1029.5 842.5,1029.5C 842.5,1044.17 842.5,1058.83 842.5,1073.5C 829.5,1073.5 816.5,1073.5 803.5,1073.5C 803.5,1058.83 803.5,1044.17 803.5,1029.5C 766.833,1029.5 730.167,1029.5 693.5,1029.5C 693.333,1014.5 693.5,999.496 694,984.5C 723.715,946.291 753.215,907.957 782.5,869.5 Z"/></g>
<g><path style="opacity:1" fill="#039ee3" d="M 802.5,898.5 C 803.498,931.996 803.832,965.663 803.5,999.5C 777.498,999.667 751.498,999.5 725.5,999C 751.054,965.38 776.721,931.88 802.5,898.5 Z"/></g>
<g><path style="opacity:1" fill="#069ee3" d="M 387.5,900.5 C 403.585,899.972 419.585,900.805 435.5,903C 441.272,905.106 445.438,908.939 448,914.5C 449.895,920.34 450.895,926.34 451,932.5C 451.878,960.52 451.544,988.52 450,1016.5C 447.45,1035.89 436.283,1044.39 416.5,1042C 405.456,1042.85 394.456,1042.52 383.5,1041C 373.992,1039.83 367.825,1034.66 365,1025.5C 364.24,1021.18 363.573,1016.85 363,1012.5C 362.833,998.5 362.667,984.5 362.5,970.5C 362.389,954.134 362.889,937.8 364,921.5C 366.723,908.603 374.556,901.603 387.5,900.5 Z"/></g>
<g><path style="opacity:1" fill="#ceecf9" d="M 178.5,1029.5 C 178.5,1033.5 178.5,1037.5 178.5,1041.5C 217.337,1041.17 256.004,1041.5 294.5,1042.5C 255.5,1042.5 216.5,1042.5 177.5,1042.5C 177.182,1037.97 177.515,1033.63 178.5,1029.5 Z"/></g>
<g><path style="opacity:1" fill="#ceecf9" d="M 554.5,1029.5 C 554.5,1033.5 554.5,1037.5 554.5,1041.5C 593.337,1041.17 632.004,1041.5 670.5,1042.5C 631.5,1042.5 592.5,1042.5 553.5,1042.5C 553.182,1037.97 553.515,1033.63 554.5,1029.5 Z"/></g>
<g><path style="opacity:1" fill="#fefefe" d="M 39.5,1139.5 C 54.2431,1168.05 77.5765,1184.89 109.5,1190C 367.167,1190.67 624.833,1190.67 882.5,1190C 916.249,1186.39 940.749,1169.56 956,1139.5C 956.971,1195.86 956.638,1252.19 955,1308.5C 945.877,1344.95 922.711,1366.12 885.5,1372C 624.809,1372.99 364.142,1372.66 103.5,1371C 67.8916,1362.06 46.7249,1339.56 40,1303.5C 39.5,1248.83 39.3333,1194.17 39.5,1139.5 Z"/></g>
<g><path style="opacity:1" fill="#ac2626" d="M 299.5,1232.5 C 304.328,1232.39 305.661,1234.55 303.5,1239C 298.57,1239.43 297.237,1237.26 299.5,1232.5 Z"/></g>
<g><path style="opacity:1" fill="#181715" d="M 778.5,1232.5 C 780.833,1232.5 783.167,1232.5 785.5,1232.5C 785.334,1236.51 785.501,1240.51 786,1244.5C 789.595,1242.54 793.428,1242.04 797.5,1243C 800,1244.17 801.833,1246 803,1248.5C 803.5,1256.83 803.666,1265.16 803.5,1273.5C 801.167,1273.5 798.833,1273.5 796.5,1273.5C 796.666,1265.83 796.5,1258.16 796,1250.5C 792.738,1247.92 789.405,1247.92 786,1250.5C 785.5,1258.16 785.334,1265.83 785.5,1273.5C 783.167,1273.5 780.833,1273.5 778.5,1273.5C 778.5,1259.83 778.5,1246.17 778.5,1232.5 Z"/></g>
<g><path style="opacity:1" fill="#d69192" d="M 157.5,1247.5 C 157.44,1248.04 157.107,1248.38 156.5,1248.5C 155.506,1243.54 155.173,1238.54 155.5,1233.5C 153.833,1233.5 152.167,1233.5 150.5,1233.5C 150.5,1246.83 150.5,1260.17 150.5,1273.5C 152.167,1273.5 153.833,1273.5 155.5,1273.5C 153.735,1274.46 151.735,1274.79 149.5,1274.5C 149.5,1260.5 149.5,1246.5 149.5,1232.5C 151.833,1232.5 154.167,1232.5 156.5,1232.5C 156.179,1237.69 156.513,1242.69 157.5,1247.5 Z"/></g>
<g><path style="opacity:1" fill="#aa1f20" d="M 157.5,1247.5 C 162.624,1244.3 167.124,1244.97 171,1249.5C 172.563,1254.72 172.896,1260.05 172,1265.5C 169.59,1273.96 164.423,1276.29 156.5,1272.5C 155.893,1272.62 155.56,1272.96 155.5,1273.5C 153.833,1273.5 152.167,1273.5 150.5,1273.5C 150.5,1260.17 150.5,1246.83 150.5,1233.5C 152.167,1233.5 153.833,1233.5 155.5,1233.5C 155.173,1238.54 155.506,1243.54 156.5,1248.5C 157.107,1248.38 157.44,1248.04 157.5,1247.5 Z"/></g>
<g><path style="opacity:1" fill="#c86f72" d="M 381.5,1233.5 C 379.833,1233.5 378.167,1233.5 376.5,1233.5C 376.5,1246.83 376.5,1260.17 376.5,1273.5C 378.167,1273.5 379.833,1273.5 381.5,1273.5C 379.735,1274.46 377.735,1274.79 375.5,1274.5C 375.5,1260.5 375.5,1246.5 375.5,1232.5C 377.735,1232.21 379.735,1232.54 381.5,1233.5 Z"/></g>
<g><path style="opacity:1" fill="#a7181b" d="M 381.5,1233.5 C 381.5,1246.83 381.5,1260.17 381.5,1273.5C 379.833,1273.5 378.167,1273.5 376.5,1273.5C 376.5,1260.17 376.5,1246.83 376.5,1233.5C 378.167,1233.5 379.833,1233.5 381.5,1233.5 Z"/></g>
<g><path style="opacity:1" fill="#1a1917" d="M 731.5,1233.5 C 733.167,1233.5 734.833,1233.5 736.5,1233.5C 736.5,1236.83 736.5,1240.17 736.5,1243.5C 739.833,1243.5 743.167,1243.5 746.5,1243.5C 746.5,1245.17 746.5,1246.83 746.5,1248.5C 743.482,1248.34 740.482,1248.5 737.5,1249C 736.549,1252.06 736.216,1255.22 736.5,1258.5C 734.833,1258.5 733.167,1258.5 731.5,1258.5C 731.5,1255.17 731.5,1251.83 731.5,1248.5C 728.167,1248.5 724.833,1248.5 721.5,1248.5C 721.5,1246.83 721.5,1245.17 721.5,1243.5C 724.833,1243.5 728.167,1243.5 731.5,1243.5C 731.5,1240.17 731.5,1236.83 731.5,1233.5 Z"/></g>
<g><path style="opacity:1" fill="#c46366" d="M 109.5,1269.5 C 108.505,1258.68 108.172,1247.68 108.5,1236.5C 106.833,1236.5 105.167,1236.5 103.5,1236.5C 103.5,1248.83 103.5,1261.17 103.5,1273.5C 109.5,1273.5 115.5,1273.5 121.5,1273.5C 121.5,1272.17 121.5,1270.83 121.5,1269.5C 122.451,1270.92 122.784,1272.59 122.5,1274.5C 115.833,1274.5 109.167,1274.5 102.5,1274.5C 102.5,1261.5 102.5,1248.5 102.5,1235.5C 104.833,1235.5 107.167,1235.5 109.5,1235.5C 109.5,1246.83 109.5,1258.17 109.5,1269.5 Z"/></g>
<g><path style="opacity:1" fill="#a7181b" d="M 109.5,1269.5 C 113.5,1269.5 117.5,1269.5 121.5,1269.5C 121.5,1270.83 121.5,1272.17 121.5,1273.5C 115.5,1273.5 109.5,1273.5 103.5,1273.5C 103.5,1261.17 103.5,1248.83 103.5,1236.5C 105.167,1236.5 106.833,1236.5 108.5,1236.5C 108.172,1247.68 108.505,1258.68 109.5,1269.5 Z"/></g>
<g><path style="opacity:1" fill="#1e1d1b" d="M 594.5,1236.5 C 596.167,1236.5 597.833,1236.5 599.5,1236.5C 599.5,1238.5 599.5,1240.5 599.5,1242.5C 602.187,1242.34 604.854,1242.5 607.5,1243C 608.833,1244.67 608.833,1246.33 607.5,1248C 604.854,1248.5 602.187,1248.66 599.5,1248.5C 599.334,1254.84 599.5,1261.18 600,1267.5C 602.719,1268.44 605.552,1268.78 608.5,1268.5C 608.5,1270.17 608.5,1271.83 608.5,1273.5C 604.154,1273.67 599.821,1273.5 595.5,1273C 594.333,1272.5 593.5,1271.67 593,1270.5C 592.833,1265 592.667,1259.5 592.5,1254C 592.546,1247.92 593.213,1242.09 594.5,1236.5 Z"/></g>
<g><path style="opacity:1" fill="#a8191d" d="M 314.5,1238.5 C 316.167,1238.5 317.833,1238.5 319.5,1238.5C 319.5,1241.17 319.5,1243.83 319.5,1246.5C 321.5,1246.5 323.5,1246.5 325.5,1246.5C 325.5,1247.5 325.5,1248.5 325.5,1249.5C 323.5,1249.5 321.5,1249.5 319.5,1249.5C 319.177,1256.02 319.51,1262.36 320.5,1268.5C 322.708,1268.96 324.874,1268.96 327,1268.5C 327.667,1269.5 327.667,1270.5 327,1271.5C 323.912,1274.1 320.412,1274.93 316.5,1274C 314.963,1272.89 314.297,1271.39 314.5,1269.5C 314.5,1262.83 314.5,1256.17 314.5,1249.5C 313.167,1249.5 311.833,1249.5 310.5,1249.5C 310.5,1248.5 310.5,1247.5 310.5,1246.5C 311.833,1246.5 313.167,1246.5 314.5,1246.5C 314.5,1243.83 314.5,1241.17 314.5,1238.5 Z"/></g>
<g><path style="opacity:1" fill="#ad2827" d="M 337.5,1238.5 C 337.5,1241.17 337.5,1243.83 337.5,1246.5C 339.833,1246.5 342.167,1246.5 344.5,1246.5C 344.5,1247.5 344.5,1248.5 344.5,1249.5C 342.167,1249.5 339.833,1249.5 337.5,1249.5C 337.177,1256.02 337.51,1262.36 338.5,1268.5C 340.664,1268.84 342.83,1268.84 345,1268.5C 345.667,1269.5 345.667,1270.5 345,1271.5C 341.912,1274.1 338.412,1274.93 334.5,1274C 333.299,1273.1 332.465,1271.93 332,1270.5C 331.5,1263.84 331.334,1257.17 331.5,1250.5C 330.167,1250.5 328.833,1250.5 327.5,1250.5C 327.5,1249.17 327.5,1247.83 327.5,1246.5C 328.833,1246.5 330.167,1246.5 331.5,1246.5C 331.5,1243.83 331.5,1241.17 331.5,1238.5C 333.5,1238.5 335.5,1238.5 337.5,1238.5 Z"/></g>
<g><path style="opacity:1" fill="#1c1b19" d="M 569.5,1242.5 C 574.862,1242.47 580.195,1242.81 585.5,1243.5C 585.5,1245.17 585.5,1246.83 585.5,1248.5C 581.154,1248.33 576.821,1248.5 572.5,1249C 572.043,1249.41 571.709,1249.91 571.5,1250.5C 575.835,1253.99 580.335,1257.33 585,1260.5C 587.499,1265.66 586.332,1269.83 581.5,1273C 576.167,1273.67 570.833,1273.67 565.5,1273C 564.24,1271.19 564.24,1269.35 565.5,1267.5C 569.442,1268.6 573.442,1268.77 577.5,1268C 578.885,1265.42 578.218,1263.42 575.5,1262C 571.096,1260.22 567.596,1257.39 565,1253.5C 563.393,1248.44 564.893,1244.77 569.5,1242.5 Z"/></g>
<g><path style="opacity:1" fill="#1b1a19" d="M 620.5,1242.5 C 628.803,1241.01 634.636,1244.01 638,1251.5C 641.848,1267.73 635.681,1274.9 619.5,1273C 616.272,1271.44 614.105,1268.94 613,1265.5C 611.859,1258.92 612.526,1252.58 615,1246.5C 616.812,1245.02 618.645,1243.69 620.5,1242.5 Z"/></g>
<g><path style="opacity:1" fill="#262523" d="M 650.5,1242.5 C 653.5,1242.5 656.5,1242.5 659.5,1242.5C 659.5,1244.5 659.5,1246.5 659.5,1248.5C 657.167,1248.5 654.833,1248.5 652.5,1248.5C 652.5,1256.83 652.5,1265.17 652.5,1273.5C 649.833,1273.5 647.167,1273.5 644.5,1273.5C 644.168,1263.81 644.502,1254.14 645.5,1244.5C 647.336,1243.97 649.003,1243.31 650.5,1242.5 Z"/></g>
<g><path style="opacity:1" fill="#1c1b19" d="M 671.5,1242.5 C 684.48,1241.48 690.48,1247.48 689.5,1260.5C 683.167,1260.5 676.833,1260.5 670.5,1260.5C 670.549,1263.1 671.549,1265.27 673.5,1267C 678.489,1267.5 683.489,1267.67 688.5,1267.5C 688.739,1269.47 688.406,1271.3 687.5,1273C 668.254,1277.42 660.42,1269.92 664,1250.5C 665.387,1246.68 667.887,1244.01 671.5,1242.5 Z"/></g>
<g><path style="opacity:1" fill="#1c1b19" d="M 699.5,1242.5 C 704.87,1242.39 710.203,1242.73 715.5,1243.5C 715.5,1245.17 715.5,1246.83 715.5,1248.5C 711.167,1248.5 706.833,1248.5 702.5,1248.5C 702.238,1249.98 702.571,1251.31 703.5,1252.5C 708.085,1254.92 712.252,1257.92 716,1261.5C 717.569,1266.63 716.069,1270.46 711.5,1273C 706.177,1273.5 700.844,1273.67 695.5,1273.5C 695.5,1271.5 695.5,1269.5 695.5,1267.5C 699.463,1268.44 703.463,1268.61 707.5,1268C 710.003,1266.45 710.003,1264.78 707.5,1263C 702.061,1260.88 697.894,1257.38 695,1252.5C 694.333,1250.83 694.333,1249.17 695,1247.5C 696.366,1245.64 697.866,1243.97 699.5,1242.5 Z"/></g>
<g><path style="opacity:1" fill="#1d1c1a" d="M 755.5,1242.5 C 760.862,1242.47 766.195,1242.81 771.5,1243.5C 771.5,1245.17 771.5,1246.83 771.5,1248.5C 767.154,1248.33 762.821,1248.5 758.5,1249C 758.043,1249.41 757.709,1249.91 757.5,1250.5C 762.051,1253.7 766.551,1257.03 771,1260.5C 773.101,1264.66 772.601,1268.5 769.5,1272C 763.612,1273.58 757.612,1273.91 751.5,1273C 750.594,1271.3 750.261,1269.47 750.5,1267.5C 754.808,1268.37 759.141,1268.53 763.5,1268C 764.357,1267.31 765.023,1266.48 765.5,1265.5C 762.217,1262.52 758.551,1260.02 754.5,1258C 748.974,1252.36 749.308,1247.19 755.5,1242.5 Z"/></g>
<g><path style="opacity:1" fill="#1b1a19" d="M 818.5,1242.5 C 826.803,1241.01 832.636,1244.01 836,1251.5C 839.848,1267.73 833.681,1274.9 817.5,1273C 814.272,1271.44 812.105,1268.94 811,1265.5C 809.859,1258.92 810.526,1252.58 813,1246.5C 814.812,1245.02 816.645,1243.69 818.5,1242.5 Z"/></g>
<g><path style="opacity:1" fill="#201f1d" d="M 858.5,1273.5 C 855.5,1273.5 852.5,1273.5 849.5,1273.5C 849.5,1277.17 849.5,1280.83 849.5,1284.5C 847.167,1284.5 844.833,1284.5 842.5,1284.5C 842.177,1270.92 842.51,1257.42 843.5,1244C 863.27,1238.12 871.436,1245.29 868,1265.5C 866.472,1270.2 863.305,1272.87 858.5,1273.5 Z"/></g>
<g><path style="opacity:1" fill="#1c1b19" d="M 878.5,1242.5 C 883.87,1242.39 889.203,1242.73 894.5,1243.5C 894.5,1245.17 894.5,1246.83 894.5,1248.5C 890.167,1248.5 885.833,1248.5 881.5,1248.5C 881.238,1249.98 881.571,1251.31 882.5,1252.5C 887.085,1254.92 891.252,1257.92 895,1261.5C 896.569,1266.63 895.069,1270.46 890.5,1273C 885.177,1273.5 879.844,1273.67 874.5,1273.5C 874.5,1271.5 874.5,1269.5 874.5,1267.5C 878.463,1268.44 882.463,1268.61 886.5,1268C 889.003,1266.45 889.003,1264.78 886.5,1263C 881.061,1260.88 876.894,1257.38 874,1252.5C 873.333,1250.83 873.333,1249.17 874,1247.5C 875.366,1245.64 876.866,1243.97 878.5,1242.5 Z"/></g>
<g><path style="opacity:1" fill="#ab2424" d="M 144.5,1260.5 C 139.167,1260.5 133.833,1260.5 128.5,1260.5C 128.232,1262.1 128.566,1263.43 129.5,1264.5C 130.618,1269.25 133.618,1270.75 138.5,1269C 139.966,1268.36 141.3,1267.53 142.5,1266.5C 145.105,1268.24 145.105,1270.07 142.5,1272C 133.37,1277.07 126.87,1274.91 123,1265.5C 121.001,1257.15 123.501,1250.65 130.5,1246C 141.308,1244.74 145.975,1249.57 144.5,1260.5 Z"/></g>
<g><path style="opacity:1" fill="#aa2122" d="M 184.5,1245.5 C 195.146,1244.81 200.146,1249.81 199.5,1260.5C 194.167,1260.5 188.833,1260.5 183.5,1260.5C 184.323,1270.08 188.823,1272.08 197,1266.5C 198.022,1267.35 198.855,1268.35 199.5,1269.5C 193.217,1275.6 186.717,1275.94 180,1270.5C 177.556,1265.09 176.89,1259.43 178,1253.5C 179.479,1250.17 181.645,1247.51 184.5,1245.5 Z"/></g>
<g><path style="opacity:1" fill="#ab2222" d="M 226.5,1273.5 C 224.833,1273.5 223.167,1273.5 221.5,1273.5C 221.824,1266.65 221.491,1259.98 220.5,1253.5C 217.672,1250.94 214.839,1251.28 212,1254.5C 211.5,1261.16 211.334,1267.83 211.5,1274.5C 209.5,1274.5 207.5,1274.5 205.5,1274.5C 205.5,1264.83 205.5,1255.17 205.5,1245.5C 207.5,1245.5 209.5,1245.5 211.5,1245.5C 211.343,1246.87 211.51,1248.21 212,1249.5C 216.533,1244.84 221.2,1244.51 226,1248.5C 226.5,1256.83 226.666,1265.16 226.5,1273.5 Z"/></g>
<g><path style="opacity:1" fill="#ac2424" d="M 237.5,1245.5 C 241.182,1245.33 244.848,1245.5 248.5,1246C 248.966,1247.3 248.966,1248.8 248.5,1250.5C 245.859,1249.74 243.192,1249.57 240.5,1250C 238.473,1251.4 238.14,1253.06 239.5,1255C 243.419,1256.54 246.919,1258.71 250,1261.5C 252.121,1268.02 249.955,1272.18 243.5,1274C 240.167,1274.67 236.833,1274.67 233.5,1274C 231.311,1273.32 230.978,1272.16 232.5,1270.5C 235.75,1270.19 239.083,1270.03 242.5,1270C 245.167,1267.67 245.167,1265.33 242.5,1263C 238.688,1261.68 235.521,1259.52 233,1256.5C 231.776,1251.63 233.276,1247.96 237.5,1245.5 Z"/></g>
<g><path style="opacity:1" fill="#a91c1f" d="M 290.5,1250.5 C 290.5,1258.17 290.5,1265.83 290.5,1273.5C 288.833,1273.5 287.167,1273.5 285.5,1273.5C 285.825,1266.31 285.491,1259.31 284.5,1252.5C 281.683,1251.16 279.183,1251.83 277,1254.5C 276.5,1260.82 276.334,1267.16 276.5,1273.5C 274.833,1273.5 273.167,1273.5 271.5,1273.5C 271.824,1266.65 271.491,1259.98 270.5,1253.5C 267.303,1250.68 264.636,1251.34 262.5,1255.5C 261.51,1261.31 261.177,1267.31 261.5,1273.5C 259.833,1273.5 258.167,1273.5 256.5,1273.5C 256.5,1264.5 256.5,1255.5 256.5,1246.5C 258.167,1246.5 259.833,1246.5 261.5,1246.5C 261.281,1247.68 261.614,1248.68 262.5,1249.5C 267.369,1244.33 272.036,1244.33 276.5,1249.5C 279.823,1245.72 283.823,1244.72 288.5,1246.5C 289.705,1247.58 290.372,1248.91 290.5,1250.5 Z"/></g>
<g><path style="opacity:1" fill="#d38b8d" d="M 319.5,1238.5 C 320.468,1240.61 320.802,1242.94 320.5,1245.5C 322.415,1245.22 324.081,1245.55 325.5,1246.5C 323.5,1246.5 321.5,1246.5 319.5,1246.5C 319.5,1243.83 319.5,1241.17 319.5,1238.5 Z"/></g>
<g><path style="opacity:1" fill="#ab2323" d="M 355.5,1245.5 C 366.136,1244.8 371.136,1249.8 370.5,1260.5C 365.167,1260.5 359.833,1260.5 354.5,1260.5C 355.035,1270.01 359.369,1272.01 367.5,1266.5C 368.833,1267.17 369.833,1268.17 370.5,1269.5C 363.408,1275.93 356.575,1275.93 350,1269.5C 348.494,1264.25 348.161,1258.92 349,1253.5C 350.305,1250.04 352.471,1247.37 355.5,1245.5 Z"/></g>
<g><path style="opacity:1" fill="#a7181b" d="M 298.5,1246.5 C 300.167,1246.5 301.833,1246.5 303.5,1246.5C 303.5,1255.5 303.5,1264.5 303.5,1273.5C 301.833,1273.5 300.167,1273.5 298.5,1273.5C 298.5,1264.5 298.5,1255.5 298.5,1246.5 Z"/></g>
<g><path style="opacity:1" fill="#ba4848" d="M 298.5,1246.5 C 300.265,1245.54 302.265,1245.21 304.5,1245.5C 304.5,1255.17 304.5,1264.83 304.5,1274.5C 302.265,1274.79 300.265,1274.46 298.5,1273.5C 300.167,1273.5 301.833,1273.5 303.5,1273.5C 303.5,1264.5 303.5,1255.5 303.5,1246.5C 301.833,1246.5 300.167,1246.5 298.5,1246.5 Z"/></g>
<g><path style="opacity:1" fill="#f5f5f5" d="M 850.5,1248.5 C 858.359,1246.86 862.026,1250.03 861.5,1258C 862.556,1266.44 858.889,1269.94 850.5,1268.5C 850.5,1261.83 850.5,1255.17 850.5,1248.5 Z"/></g>
<g><path style="opacity:1" fill="#f3f3f3" d="M 622.5,1248.5 C 626.273,1247.82 629.106,1249.16 631,1252.5C 631.667,1256.17 631.667,1259.83 631,1263.5C 629.309,1267.21 626.475,1268.38 622.5,1267C 621.299,1266.1 620.465,1264.93 620,1263.5C 618.776,1258.04 619.609,1253.04 622.5,1248.5 Z"/></g>
<g><path style="opacity:1" fill="#f2f2f1" d="M 673.5,1248.5 C 679.008,1247.68 681.675,1250.01 681.5,1255.5C 677.833,1255.5 674.167,1255.5 670.5,1255.5C 670.688,1252.79 671.688,1250.46 673.5,1248.5 Z"/></g>
<g><path style="opacity:1" fill="#f3f3f3" d="M 820.5,1248.5 C 824.273,1247.82 827.106,1249.16 829,1252.5C 829.667,1256.17 829.667,1259.83 829,1263.5C 827.309,1267.21 824.475,1268.38 820.5,1267C 819.299,1266.1 818.465,1264.93 818,1263.5C 816.776,1258.04 817.609,1253.04 820.5,1248.5 Z"/></g>
<g><path style="opacity:1" fill="#fbf3f3" d="M 138.5,1253.5 C 138.5,1254.5 138.5,1255.5 138.5,1256.5C 134.988,1257.05 131.988,1256.39 129.5,1254.5C 130.423,1250.74 132.756,1249.24 136.5,1250C 137.823,1250.82 138.489,1251.98 138.5,1253.5 Z"/></g>
<g><path style="opacity:1" fill="#f5e1e1" d="M 186.5,1249.5 C 191.649,1249.65 193.982,1252.32 193.5,1257.5C 190.167,1257.5 186.833,1257.5 183.5,1257.5C 183.394,1254.39 184.394,1251.72 186.5,1249.5 Z"/></g>
<g><path style="opacity:1" fill="#d48b8b" d="M 314.5,1238.5 C 314.5,1241.17 314.5,1243.83 314.5,1246.5C 313.167,1246.5 311.833,1246.5 310.5,1246.5C 310.5,1247.5 310.5,1248.5 310.5,1249.5C 311.833,1249.5 313.167,1249.5 314.5,1249.5C 314.5,1256.17 314.5,1262.83 314.5,1269.5C 313.51,1263.36 313.177,1257.02 313.5,1250.5C 312.167,1250.5 310.833,1250.5 309.5,1250.5C 309.5,1248.83 309.5,1247.17 309.5,1245.5C 310.833,1245.5 312.167,1245.5 313.5,1245.5C 313.198,1242.94 313.532,1240.61 314.5,1238.5 Z"/></g>
<g><path style="opacity:1" fill="#d48c8c" d="M 325.5,1249.5 C 324.081,1250.45 322.415,1250.78 320.5,1250.5C 320.5,1256.5 320.5,1262.5 320.5,1268.5C 319.51,1262.36 319.177,1256.02 319.5,1249.5C 321.5,1249.5 323.5,1249.5 325.5,1249.5 Z"/></g>
<g><path style="opacity:1" fill="#dda4a5" d="M 337.5,1238.5 C 338.468,1240.61 338.802,1242.94 338.5,1245.5C 340.833,1245.5 343.167,1245.5 345.5,1245.5C 345.5,1247.17 345.5,1248.83 345.5,1250.5C 343.167,1250.5 340.833,1250.5 338.5,1250.5C 338.5,1256.5 338.5,1262.5 338.5,1268.5C 337.51,1262.36 337.177,1256.02 337.5,1249.5C 339.833,1249.5 342.167,1249.5 344.5,1249.5C 344.5,1248.5 344.5,1247.5 344.5,1246.5C 342.167,1246.5 339.833,1246.5 337.5,1246.5C 337.5,1243.83 337.5,1241.17 337.5,1238.5 Z"/></g>
<g><path style="opacity:1" fill="#f6e3e3" d="M 357.5,1249.5 C 362.58,1249.62 364.913,1252.29 364.5,1257.5C 361.167,1257.5 357.833,1257.5 354.5,1257.5C 354.394,1254.39 355.394,1251.72 357.5,1249.5 Z"/></g>
<g><path style="opacity:1" fill="#fbf4f4" d="M 160.5,1250.5 C 162.144,1250.29 163.644,1250.62 165,1251.5C 167,1257.17 167,1262.83 165,1268.5C 157.922,1270.88 154.756,1268.38 155.5,1261C 154.449,1256.08 156.116,1252.58 160.5,1250.5 Z"/></g>
<g><path style="opacity:1" fill="#c76d70" d="M 262.5,1255.5 C 262.5,1261.83 262.5,1268.17 262.5,1274.5C 260.265,1274.79 258.265,1274.46 256.5,1273.5C 258.167,1273.5 259.833,1273.5 261.5,1273.5C 261.177,1267.31 261.51,1261.31 262.5,1255.5 Z"/></g>
<g><path style="opacity:1" fill="#c36163" d="M 270.5,1253.5 C 271.491,1259.98 271.824,1266.65 271.5,1273.5C 273.167,1273.5 274.833,1273.5 276.5,1273.5C 274.735,1274.46 272.735,1274.79 270.5,1274.5C 270.5,1267.5 270.5,1260.5 270.5,1253.5 Z"/></g>
<g><path style="opacity:1" fill="#dfa9aa" d="M 290.5,1250.5 C 291.492,1258.32 291.826,1266.32 291.5,1274.5C 289.167,1274.5 286.833,1274.5 284.5,1274.5C 284.5,1267.17 284.5,1259.83 284.5,1252.5C 285.491,1259.31 285.825,1266.31 285.5,1273.5C 287.167,1273.5 288.833,1273.5 290.5,1273.5C 290.5,1265.83 290.5,1258.17 290.5,1250.5 Z"/></g>
<g><path style="opacity:1" fill="#d08183" d="M 138.5,1253.5 C 139.434,1254.57 139.768,1255.9 139.5,1257.5C 135.833,1257.5 132.167,1257.5 128.5,1257.5C 128.263,1256.21 128.596,1255.21 129.5,1254.5C 131.988,1256.39 134.988,1257.05 138.5,1256.5C 138.5,1255.5 138.5,1254.5 138.5,1253.5 Z"/></g>
<g><path style="opacity:1" fill="#c25f61" d="M 220.5,1253.5 C 221.491,1259.98 221.824,1266.65 221.5,1273.5C 223.167,1273.5 224.833,1273.5 226.5,1273.5C 224.735,1274.46 222.735,1274.79 220.5,1274.5C 220.5,1267.5 220.5,1260.5 220.5,1253.5 Z"/></g>
<g><path style="opacity:1" fill="#d18688" d="M 144.5,1260.5 C 139.695,1261.49 134.695,1261.82 129.5,1261.5C 129.5,1262.5 129.5,1263.5 129.5,1264.5C 128.566,1263.43 128.232,1262.1 128.5,1260.5C 133.833,1260.5 139.167,1260.5 144.5,1260.5 Z"/></g>
<g><path style="opacity:1" fill="#6d6c6b" d="M 858.5,1273.5 C 856.052,1274.47 853.385,1274.81 850.5,1274.5C 850.813,1278.04 850.479,1281.38 849.5,1284.5C 849.5,1280.83 849.5,1277.17 849.5,1273.5C 852.5,1273.5 855.5,1273.5 858.5,1273.5 Z"/></g>
<g><path style="opacity:1" fill="#1b1a18" d="M 154.5,1282.5 C 159.159,1282.01 160.492,1283.85 158.5,1288C 153.728,1288.81 152.395,1286.98 154.5,1282.5 Z"/></g>
<g><path style="opacity:1" fill="#201f1d" d="M 110.5,1315.5 C 109.957,1315.56 109.624,1315.89 109.5,1316.5C 114.792,1317.49 120.125,1317.83 125.5,1317.5C 125.5,1319.17 125.5,1320.83 125.5,1322.5C 117.833,1322.5 110.167,1322.5 102.5,1322.5C 102.338,1320.47 102.505,1318.47 103,1316.5C 108.167,1308 113.333,1299.5 118.5,1291C 113.511,1290.5 108.511,1290.33 103.5,1290.5C 103.5,1288.83 103.5,1287.17 103.5,1285.5C 110.833,1285.5 118.167,1285.5 125.5,1285.5C 125.66,1287.2 125.494,1288.87 125,1290.5C 120.155,1298.86 115.322,1307.19 110.5,1315.5 Z"/></g>
<g><path style="opacity:1" fill="#222120" d="M 168.5,1288.5 C 170.167,1288.5 171.833,1288.5 173.5,1288.5C 173.198,1291.06 173.532,1293.39 174.5,1295.5C 176.833,1295.5 179.167,1295.5 181.5,1295.5C 181.5,1296.83 181.5,1298.17 181.5,1299.5C 179.167,1299.5 176.833,1299.5 174.5,1299.5C 174.5,1305.5 174.5,1311.5 174.5,1317.5C 176.582,1317.53 178.416,1316.86 180,1315.5C 181.365,1316.59 181.699,1317.93 181,1319.5C 177.662,1322.33 173.995,1323 170,1321.5C 168.609,1314.25 168.109,1306.92 168.5,1299.5C 167.167,1299.5 165.833,1299.5 164.5,1299.5C 164.5,1298.17 164.5,1296.83 164.5,1295.5C 165.833,1295.5 167.167,1295.5 168.5,1295.5C 168.5,1293.17 168.5,1290.83 168.5,1288.5 Z"/></g>
<g><path style="opacity:1" fill="#646362" d="M 168.5,1288.5 C 170.265,1287.54 172.265,1287.21 174.5,1287.5C 174.5,1290.17 174.5,1292.83 174.5,1295.5C 173.532,1293.39 173.198,1291.06 173.5,1288.5C 171.833,1288.5 170.167,1288.5 168.5,1288.5 Z"/></g>
<g><path style="opacity:1" fill="#201f1d" d="M 134.5,1294.5 C 144.622,1294.29 149.289,1299.29 148.5,1309.5C 143.5,1309.5 138.5,1309.5 133.5,1309.5C 132.725,1316.56 135.725,1319.06 142.5,1317C 144.921,1313.69 146.921,1313.86 148.5,1317.5C 141.736,1323.9 135.236,1323.9 129,1317.5C 127.582,1312.57 127.249,1307.57 128,1302.5C 129.305,1299.04 131.471,1296.37 134.5,1294.5 Z"/></g>
<g><path style="opacity:1" fill="#1b1a18" d="M 158.5,1295.5 C 158.5,1304.17 158.5,1312.83 158.5,1321.5C 156.833,1321.5 155.167,1321.5 153.5,1321.5C 153.5,1312.83 153.5,1304.17 153.5,1295.5C 155.167,1295.5 156.833,1295.5 158.5,1295.5 Z"/></g>
<g><path style="opacity:1" fill="#575755" d="M 158.5,1295.5 C 159.493,1304.32 159.827,1313.32 159.5,1322.5C 157.265,1322.79 155.265,1322.46 153.5,1321.5C 155.167,1321.5 156.833,1321.5 158.5,1321.5C 158.5,1312.83 158.5,1304.17 158.5,1295.5 Z"/></g>
<g><path style="opacity:1" fill="#1d1d1b" d="M 205.5,1295.5 C 205.5,1304.17 205.5,1312.83 205.5,1321.5C 203.833,1321.5 202.167,1321.5 200.5,1321.5C 200.649,1320.45 200.483,1319.45 200,1318.5C 196.595,1322.17 192.595,1323.17 188,1321.5C 187.138,1319.91 186.471,1318.25 186,1316.5C 185.5,1309.51 185.334,1302.51 185.5,1295.5C 187.5,1295.5 189.5,1295.5 191.5,1295.5C 191.334,1302.51 191.5,1309.51 192,1316.5C 195.258,1317.55 197.924,1316.55 200,1313.5C 200.499,1307.51 200.666,1301.51 200.5,1295.5C 202.167,1295.5 203.833,1295.5 205.5,1295.5 Z"/></g>
<g><path style="opacity:1" fill="#7d7c7b" d="M 205.5,1295.5 C 206.493,1304.32 206.827,1313.32 206.5,1322.5C 204.265,1322.79 202.265,1322.46 200.5,1321.5C 202.167,1321.5 203.833,1321.5 205.5,1321.5C 205.5,1312.83 205.5,1304.17 205.5,1295.5 Z"/></g>
<g><path style="opacity:1" fill="#1a1917" d="M 232.5,1299.5 C 232.5,1306.83 232.5,1314.17 232.5,1321.5C 230.833,1321.5 229.167,1321.5 227.5,1321.5C 227.824,1314.65 227.491,1307.98 226.5,1301.5C 225.054,1300.39 223.387,1300.22 221.5,1301C 220.627,1302.04 219.627,1302.88 218.5,1303.5C 217.51,1309.31 217.177,1315.31 217.5,1321.5C 216.167,1321.5 214.833,1321.5 213.5,1321.5C 213.5,1312.83 213.5,1304.17 213.5,1295.5C 215.167,1295.5 216.833,1295.5 218.5,1295.5C 218.351,1296.55 218.517,1297.55 219,1298.5C 221.912,1295.46 225.412,1294.29 229.5,1295C 231.141,1296.13 232.141,1297.63 232.5,1299.5 Z"/></g>
<g><path style="opacity:1" fill="#1f1e1c" d="M 244.5,1294.5 C 248.192,1293.97 251.358,1294.97 254,1297.5C 255.401,1295.81 257.234,1295.14 259.5,1295.5C 259.667,1306.51 259.5,1317.51 259,1328.5C 256.187,1332.49 252.354,1334.16 247.5,1333.5C 245.5,1333.33 243.5,1333.17 241.5,1333C 239.485,1331.44 239.152,1329.61 240.5,1327.5C 249.865,1332.09 254.032,1329.42 253,1319.5C 246.348,1324.37 241.348,1323.04 238,1315.5C 235.66,1306.87 237.827,1299.87 244.5,1294.5 Z"/></g>
<g><path style="opacity:1" fill="#f3f3f3" d="M 136.5,1298.5 C 140.98,1298.65 142.98,1300.98 142.5,1305.5C 139.5,1305.5 136.5,1305.5 133.5,1305.5C 133.15,1302.55 134.15,1300.21 136.5,1298.5 Z"/></g>
<g><path style="opacity:1" fill="#f2f2f2" d="M 246.5,1299.5 C 252.274,1299.05 254.941,1301.72 254.5,1307.5C 255.322,1312.83 253.155,1316.17 248,1317.5C 246.893,1317.41 245.893,1317.08 245,1316.5C 242.539,1310.4 243.039,1304.74 246.5,1299.5 Z"/></g>
<g><path style="opacity:1" fill="#51504e" d="M 213.5,1295.5 C 213.5,1304.17 213.5,1312.83 213.5,1321.5C 214.833,1321.5 216.167,1321.5 217.5,1321.5C 217.177,1315.31 217.51,1309.31 218.5,1303.5C 218.5,1309.83 218.5,1316.17 218.5,1322.5C 216.5,1322.5 214.5,1322.5 212.5,1322.5C 212.173,1313.32 212.507,1304.32 213.5,1295.5 Z"/></g>
<g><path style="opacity:1" fill="#b8b8b7" d="M 232.5,1299.5 C 233.492,1306.98 233.825,1314.65 233.5,1322.5C 231.167,1322.5 228.833,1322.5 226.5,1322.5C 226.5,1315.5 226.5,1308.5 226.5,1301.5C 227.491,1307.98 227.824,1314.65 227.5,1321.5C 229.167,1321.5 230.833,1321.5 232.5,1321.5C 232.5,1314.17 232.5,1306.83 232.5,1299.5 Z"/></g>
<g><path style="opacity:1" fill="#989897" d="M 110.5,1315.5 C 115.5,1316.17 120.5,1316.83 125.5,1317.5C 120.125,1317.83 114.792,1317.49 109.5,1316.5C 109.624,1315.89 109.957,1315.56 110.5,1315.5 Z"/></g>
</svg>
